<svg width="450" height="449" viewBox="0 0 450 449" fill="none" xmlns="http://www.w3.org/2000/svg">
<g clip-path="url(#clip0_2_28)">
<path d="M228 447.933C351.675 447.933 451.933 347.675 451.933 224C451.933 100.325 351.675 0.0672607 228 0.0672607C104.325 0.0672607 4.0672 100.325 4.0672 224C4.0672 347.675 104.325 447.933 228 447.933Z" fill="#749DD3"/>
<path d="M228 409.856C330.646 409.856 413.856 326.646 413.856 224C413.856 121.354 330.646 38.1437 228 38.1437C125.354 38.1437 42.1437 121.354 42.1437 224C42.1437 326.646 125.354 409.856 228 409.856Z" fill="#DFECFA"/>
<path d="M361.995 188.925L355.404 229.807L354.139 237.653C354.139 243.728 341.16 323.761 334.437 323.761L228.129 250.305L110.144 332.165C103.424 332.165 96.3565 246.043 96.3565 239.967L95.8877 229.807L94.0048 189.044L112.972 172.654L220.545 79.6942C222.767 78.1346 225.415 77.2979 228.129 77.2979C230.843 77.2979 233.491 78.1346 235.713 79.6942L343.184 172.654L361.995 188.925Z" fill="#262F5F"/>
<path d="M332.836 126.569H124.28V323.179H332.836V126.569Z" fill="white"/>
<path d="M228.144 295.9L94.0049 189.044V370.702H361.995V189.044L228.144 295.9Z" fill="#749DD3"/>
<path d="M94.0049 189.044V370.702L208.025 279.873L94.0049 189.044Z" fill="#9EBEE5"/>
<path d="M361.995 189.044V370.702L247.975 279.873L361.995 189.044Z" fill="#9EBEE5"/>
<path d="M228.558 244.238C249.421 244.238 266.334 227.325 266.334 206.462C266.334 185.599 249.421 168.687 228.558 168.687C207.695 168.687 190.782 185.599 190.782 206.462C190.782 227.325 207.695 244.238 228.558 244.238Z" fill="#749DD3"/>
<path d="M228.558 255.945C201.273 255.945 179.075 233.747 179.075 206.462C179.075 179.177 201.273 156.979 228.558 156.979C255.843 156.979 278.041 179.177 278.041 206.462C278.041 233.747 255.843 255.945 228.558 255.945ZM228.558 162.561C204.351 162.561 184.656 182.255 184.656 206.462C184.656 230.67 204.351 250.364 228.558 250.364C252.766 250.364 272.46 230.67 272.46 206.462C272.46 182.255 252.766 162.561 228.558 162.561Z" fill="#262F5F"/>
<path d="M248.337 193.645L241.375 186.683L228.558 199.5L215.741 186.683L208.779 193.645L221.596 206.462L208.779 219.279L215.741 226.242L228.558 213.424L241.375 226.242L248.337 219.279L235.52 206.462L248.337 193.645Z" fill="white"/>
</g>
<defs>
<clipPath id="clip0_2_28">
<rect width="450" height="449" fill="white"/>
</clipPath>
</defs>
</svg>
