<svg width="448" height="448" viewBox="0 0 448 448" fill="none" xmlns="http://www.w3.org/2000/svg">
<g clip-path="url(#clip0_5_79)">
<path d="M224 447.933C347.675 447.933 447.933 347.675 447.933 224C447.933 100.325 347.675 0.0672607 224 0.0672607C100.325 0.0672607 0.0672607 100.325 0.0672607 224C0.0672607 347.675 100.325 447.933 224 447.933Z" fill="#749DD3"/>
<path d="M224 409.856C326.646 409.856 409.856 326.646 409.856 224C409.856 121.354 326.646 38.1437 224 38.1437C121.354 38.1437 38.1437 121.354 38.1437 224C38.1437 326.646 121.354 409.856 224 409.856Z" fill="#DFECFA"/>
</g>
<path d="M215.395 77.4L83.5958 190.149L86.0487 241.164C86.0487 247.249 93.4208 333.523 100.433 333.523L223.499 251.518L334.387 325.105C341.399 325.105 354.936 244.929 354.936 238.844L363.132 190.029L231.215 77.4C226.586 74.2 220.024 74.2 215.395 77.4Z" fill="#262F5F"/>
<path d="M331.114 106.445C331.114 113.465 325.539 119.155 318.662 119.155C311.784 119.155 306.209 113.465 306.209 106.445H299.329C299.329 113.465 293.754 119.155 286.876 119.155C279.999 119.155 274.423 113.465 274.423 106.445H267.543C267.543 113.465 261.968 119.155 255.091 119.155C248.213 119.155 242.638 113.465 242.638 106.445H235.758C235.758 113.465 230.183 119.155 223.305 119.155C216.428 119.155 210.852 113.465 210.852 106.445H203.972C203.972 113.465 198.397 119.155 191.52 119.155C184.642 119.155 179.067 113.465 179.067 106.445H172.187C172.187 113.465 166.612 119.155 159.734 119.155C152.857 119.155 147.281 113.465 147.281 106.445H140.401C140.401 113.465 134.826 119.155 127.949 119.155C121.071 119.155 115.496 113.465 115.496 106.445H106.754V353.347H340.372V106.445H331.114Z" fill="white"/>
<path d="M226.202 275.412L289.798 213.106C306.5 196.743 330.34 187.394 355.36 187.394C361.236 187.394 366 191.111 366 195.697V362.229C366 366.814 358.056 373.777 352.18 373.777H316.044L226.202 285.759C223.197 282.815 223.197 278.356 226.202 275.412Z" fill="#9EBEE5"/>
<path d="M220.798 275.3L157.201 212.994C140.499 196.631 116.66 187.281 91.6395 187.281C85.7635 187.281 81 190.999 81 195.584V363.115C81 367.701 87.8201 373.779 93.6961 373.779L130.956 373.665L220.798 285.646C223.803 282.702 223.803 278.244 220.798 275.3Z" fill="#9EBEE5"/>
<path d="M365.999 328.144V364.058C365.999 369.426 360.314 373.777 353.304 373.777H93.6953C86.685 373.777 81.0002 369.426 81.0002 364.058V328.144L215.589 246.075C217.85 244.739 220.422 244.011 223.051 243.964C225.996 243.884 228.971 244.589 231.41 246.075L365.999 328.144Z" fill="#749DD3"/>
<path d="M81.0001 313.168L198.124 253.086L200.414 255.329L81.0001 328.145V313.168Z" fill="#8FB0DC"/>
<path d="M365.998 313.168L248.875 253.086L246.585 255.329L365.998 328.145V313.168Z" fill="#8FB0DC"/>
<path d="M223.776 218.551C244.639 218.551 261.551 201.639 261.551 180.776C261.551 159.913 244.639 143 223.776 143C202.913 143 186 159.913 186 180.776C186 201.639 202.913 218.551 223.776 218.551Z" fill="#749DD3"/>
<path d="M223.483 229.966C196.198 229.966 174 207.768 174 180.483C174 153.198 196.198 131 223.483 131C250.768 131 272.966 153.198 272.966 180.483C272.966 207.768 250.768 229.966 223.483 229.966ZM223.483 136.581C199.275 136.581 179.581 156.275 179.581 180.483C179.581 204.69 199.275 224.384 223.483 224.384C247.69 224.384 267.384 204.69 267.384 180.483C267.384 156.275 247.69 136.581 223.483 136.581Z" fill="#262F5F"/>
<path d="M244.48 157L241.01 201.792L219.174 190.438L244.48 157Z" fill="white"/>
<path d="M244.48 157L210.878 187.998L192 186.13L244.48 157Z" fill="white"/>
<path d="M244.48 157L219.174 190.438L215.871 203.798L210.878 187.998L244.48 157Z" fill="white"/>
<path opacity="0.1" d="M244.48 157L219.174 190.438L215.871 203.798L210.878 187.998L244.48 157Z" fill="#314982"/>
<defs>
<clipPath id="clip0_5_79">
<rect width="448" height="448" fill="white"/>
</clipPath>
</defs>
</svg>
