<svg width="448" height="448" viewBox="0 0 448 448" fill="none" xmlns="http://www.w3.org/2000/svg">
<g clip-path="url(#clip0_2_3)">
<path d="M224 447.933C347.675 447.933 447.933 347.675 447.933 224C447.933 100.325 347.675 0.0672607 224 0.0672607C100.325 0.0672607 0.0672302 100.325 0.0672302 224C0.0672302 347.675 100.325 447.933 224 447.933Z" fill="#749DD3"/>
<path d="M224 409.856C326.646 409.856 409.856 326.646 409.856 224C409.856 121.354 326.646 38.1437 224 38.1437C121.354 38.1437 38.1437 121.354 38.1437 224C38.1437 326.646 121.354 409.856 224 409.856Z" fill="#DFECFA"/>
<path d="M357.995 188.925L351.404 229.807L350.139 237.653C350.139 243.728 337.16 323.761 330.437 323.761L224.129 250.305L106.144 332.165C99.424 332.165 92.3565 246.043 92.3565 239.967L91.8876 229.807L90.0048 189.044L108.972 172.654L216.545 79.6942C218.767 78.1346 221.415 77.2979 224.129 77.2979C226.843 77.2979 229.491 78.1346 231.713 79.6942L339.184 172.654L357.995 188.925Z" fill="#262F5F"/>
<path d="M328.836 126.569H120.28V323.179H328.836V126.569Z" fill="white"/>
<path d="M224.144 295.9L90.0049 189.044V370.702H357.995V189.044L224.144 295.9Z" fill="#749DD3"/>
<path d="M90.0049 189.044V370.702L204.025 279.873L90.0049 189.044Z" fill="#9EBEE5"/>
<path d="M357.995 189.044V370.702L243.975 279.873L357.995 189.044Z" fill="#9EBEE5"/>
<path d="M224.558 244.238C245.421 244.238 262.334 227.325 262.334 206.462C262.334 185.599 245.421 168.687 224.558 168.687C203.695 168.687 186.782 185.599 186.782 206.462C186.782 227.325 203.695 244.238 224.558 244.238Z" fill="#749DD3"/>
<path d="M224.558 255.945C197.273 255.945 175.075 233.747 175.075 206.462C175.075 179.177 197.273 156.979 224.558 156.979C251.843 156.979 274.041 179.177 274.041 206.462C274.041 233.747 251.843 255.945 224.558 255.945ZM224.558 162.561C200.351 162.561 180.656 182.255 180.656 206.462C180.656 230.67 200.351 250.364 224.558 250.364C248.766 250.364 268.46 230.67 268.46 206.462C268.46 182.255 248.766 162.561 224.558 162.561Z" fill="#262F5F"/>
<path d="M218.947 226.267L203.222 209.232L210.489 202.524L218.444 211.141L238.197 186.658L245.894 192.868L218.947 226.267Z" fill="white"/>
</g>
<defs>
<clipPath id="clip0_2_3">
<rect width="448" height="448" fill="white"/>
</clipPath>
</defs>
</svg>
